<svg width="928" height="224" viewBox="0 0 928 224" fill="none" xmlns="http://www.w3.org/2000/svg">
<path d="M755.262 0H783.851V187.049L891.888 0H928V220.749H899.411V33.0814L791.073 220.749H755.262V0Z" fill="black"/>
<path d="M220.132 224C217.13 224 213.928 223.692 210.525 223.074C207.323 222.662 204.721 221.941 202.72 220.912V194.351C206.522 195.587 210.625 196.204 215.029 196.204C224.035 196.204 231.04 191.469 236.044 181.997C241.248 172.32 245.05 158.834 247.452 141.538C249.854 124.243 251.355 103.653 251.955 79.7691C252.556 55.6791 252.856 29.2212 252.856 0.395508H387.354L392.162 65.0218C395.767 113.479 394.59 162.174 388.649 210.401L387.354 220.912H358.833L360.063 213.292C367.537 166.989 368.831 119.898 363.911 73.2533L358.833 25.1033H280.776C280.576 42.6046 280.176 59.6941 279.576 76.3718C279.175 92.8436 278.275 108.492 276.874 123.316C275.673 137.935 273.771 151.422 271.169 163.775C268.568 176.129 265.065 186.836 260.662 195.895C256.259 204.749 250.755 211.647 244.15 216.588C237.545 221.53 229.539 224 220.132 224Z" fill="black"/>
<path d="M606.204 0H745.839V24.7338H634.793V24.7338C640.858 63.2806 642.62 102.382 640.045 141.318L634.793 220.749H606.204L612.74 129.868C614.185 109.778 614.031 89.6049 612.278 69.5393L606.204 0Z" fill="black"/>
<path d="M481.064 0.395508H512.595L596.376 220.772H564.845L541.423 154.412V154.412C513.097 143.685 481.883 143.357 453.338 153.488L450.735 154.412L426.712 220.772H397.584L481.064 0.395508ZM532.414 129.72L496.679 26.9394H496.079L459.744 129.72L487.254 122.846C502.621 119.006 518.886 121.482 532.414 129.72V129.72Z" fill="black"/>
<path d="M101.458 195.398C85.3629 195.398 70.992 193.529 58.3457 189.792C45.8909 185.859 35.3523 180.254 26.7298 172.977C18.1073 165.503 11.4967 156.554 6.89801 146.13C2.29934 135.51 0 123.512 0 110.138C0 96.9611 2.29934 84.9638 6.89801 74.1466C11.4967 63.3294 18.1073 54.184 26.7298 46.7103C35.3523 39.2365 45.8909 33.4346 58.3457 29.3044C70.992 25.1742 85.3629 23.1091 101.458 23.1091V0.392944H128.763V23.1091C144.858 23.1091 159.229 25.1742 171.875 29.3044C184.522 33.2379 195.156 39.0399 203.779 46.7103C212.401 54.184 218.916 63.3294 223.323 74.1466C227.922 84.7672 230.221 96.7644 230.221 110.138C230.221 137.87 221.311 159.013 203.491 173.567C185.863 188.121 160.954 195.398 128.763 195.398V220.769H101.458V195.398ZM101.458 45.8252C75.0158 46.6119 56.0463 52.7089 44.5496 64.1161C33.053 75.3267 27.3046 90.6674 27.3046 110.138C27.3046 129.806 33.053 144.852 44.5496 155.276C56.0463 165.7 75.0158 171.501 101.458 172.682V45.8252ZM128.763 172.682C155.205 171.501 174.175 165.7 185.671 155.276C197.168 144.852 202.916 129.806 202.916 110.138C202.916 90.6674 197.168 75.3267 185.671 64.1161C174.175 52.7089 155.205 46.6119 128.763 45.8252V172.682Z" fill="black"/>
</svg>
