<svg width="928" height="215" viewBox="0 0 928 215" fill="none" xmlns="http://www.w3.org/2000/svg">
<path d="M101.52 190.099C85.415 190.099 71.0354 188.277 58.3813 184.634C45.919 180.8 35.3739 175.336 26.7461 168.242C18.1183 160.956 11.5037 152.232 6.90223 142.071C2.30075 131.717 9.53227e-06 120.022 1.18118e-05 106.984C1.40579e-05 94.1386 2.30076 82.4432 6.90224 71.8982C11.5037 61.3531 18.1184 52.4377 26.7461 45.152C35.3739 37.8664 45.919 32.2104 58.3813 28.1841C71.0354 24.1578 85.415 22.1446 101.52 22.1446L101.52 1.77504e-05L128.842 2.25274e-05L128.842 22.1446C144.947 22.1446 159.326 24.1578 171.98 28.1841C184.634 32.0187 195.275 37.6747 203.903 45.1521C212.531 52.4378 219.05 61.3531 223.46 71.8982C228.061 82.2515 230.362 93.9469 230.362 106.984C230.362 134.018 221.446 154.629 203.616 168.817C185.977 183.005 161.052 190.099 128.842 190.099L128.841 214.832L101.52 214.832L101.52 190.099ZM101.52 44.2893C75.0617 45.0562 56.0806 50.9998 44.5769 62.12C33.0732 73.0485 27.3213 88.0033 27.3213 106.984C27.3213 126.157 33.0732 140.825 44.5769 150.986C56.0806 161.148 75.0617 166.804 101.52 167.954L101.52 44.2893ZM128.842 167.954C155.3 166.804 174.281 161.148 185.785 150.986C197.289 140.825 203.04 126.157 203.04 106.984C203.04 88.0034 197.289 73.0486 185.785 62.12C174.281 50.9998 155.3 45.0562 128.842 44.2893L128.842 167.954Z" fill="black"/>
<path d="M238.509 213.106C235.633 213.106 232.565 212.819 229.306 212.243C226.238 211.86 223.746 211.189 221.828 210.23L221.828 185.497C225.471 186.648 229.402 187.223 233.62 187.223C242.247 187.223 248.958 182.813 253.751 173.994C258.736 164.982 262.379 152.424 264.68 136.319C266.98 120.214 268.418 101.041 268.994 78.8004C269.569 56.3682 269.856 31.7311 269.856 4.88911L398.698 4.88913L398.698 78.8004L398.698 210.23L371.376 210.23L371.377 106.985L371.377 27.8965L296.602 27.8965C296.411 44.1934 296.027 60.1069 295.452 75.6369C295.069 90.9752 294.206 105.547 292.864 119.351C291.713 132.964 289.892 145.522 287.399 157.026C284.907 168.529 281.552 178.499 277.334 186.935C273.116 195.18 267.843 201.602 261.516 206.204C255.189 210.805 247.52 213.106 238.509 213.106Z" fill="black"/>
<path d="M613.803 4.88917L747.246 4.88919L747.246 27.8966L641.124 27.8966L641.124 119.351L641.124 210.23L613.803 210.23L613.803 86.7284L613.803 4.88917Z" fill="black"/>
<path d="M762.32 4.88919L789.642 4.8892L789.642 178.883L892.887 4.88921L927.399 4.88922L927.399 210.23L900.077 210.23L900.077 35.6616L796.544 210.23L762.32 210.23L762.32 4.88919Z" fill="black"/>
<path d="M491.079 4.50172L521.276 4.50173L601.515 209.843L573.57 209.843L566.93 192.976L557.504 173.047C555.045 167.848 551.731 163.098 547.7 158.996C524.504 135.39 486.331 135.544 463.177 159.191C459.295 163.155 456.062 167.737 453.635 172.727L443.784 192.976L436.772 209.843L411.128 209.843L450.55 116.01L491.079 4.50172ZM540.258 125.003L506.034 29.2347L505.459 29.2347L470.66 125.003L505.459 125.003L540.258 125.003Z" fill="black"/>
</svg>
