<svg width="736" height="176" viewBox="0 0 736 176" fill="none" xmlns="http://www.w3.org/2000/svg">
<path d="M83.0564 155.738C69.8803 155.738 58.116 154.245 47.7633 151.261C37.5676 148.12 28.9403 143.643 21.8817 137.831C14.8231 131.863 9.4115 124.716 5.6469 116.391C1.8823 107.909 0 98.3275 0 87.6466C0 77.1227 1.8823 67.5413 5.6469 58.9023C9.4115 50.2633 14.8231 42.9594 21.8817 36.9906C28.9403 31.0219 37.5676 26.3882 47.7633 23.0897C58.116 19.7912 69.8803 18.1419 83.0564 18.1419V0H105.409V18.1419C118.585 18.1419 130.349 19.7912 140.702 23.0897C151.054 26.2311 159.76 30.8648 166.819 36.9906C173.877 42.9594 179.211 50.2633 182.818 58.9023C186.583 67.3842 188.465 76.9656 188.465 87.6466C188.465 109.794 181.171 126.679 166.583 138.303C152.153 149.926 131.761 155.738 105.409 155.738V176H83.0564V155.738ZM83.0564 36.2838C61.41 36.9121 45.881 41.7813 36.4695 50.8916C27.0581 59.8447 22.3523 72.0964 22.3523 87.6466C22.3523 103.354 27.0581 115.37 36.4695 123.695C45.881 132.02 61.41 136.653 83.0564 137.596V36.2838ZM105.409 137.596C127.055 136.653 142.584 132.02 151.996 123.695C161.407 115.37 166.113 103.354 166.113 87.6466C166.113 72.0964 161.407 59.8447 151.996 50.8916C142.584 41.7813 127.055 36.9121 105.409 36.2838V137.596Z" fill="white"/>
<path d="M600.945 4.00534H623.297V146.549L707.765 4.00534H736V172.23H713.648V29.2155L628.944 172.23H600.945V4.00534Z" fill="white"/>
<path d="M182.844 174.888C180.491 174.888 177.981 174.652 175.315 174.181C172.805 173.867 170.766 173.317 169.197 172.532V152.269C172.178 153.212 175.393 153.683 178.844 153.683C185.903 153.683 191.393 150.07 195.314 142.845C199.392 135.462 202.373 125.174 204.255 111.98C206.137 98.7859 207.314 83.0786 207.784 64.8582C208.255 46.4807 208.49 26.2968 208.49 4.30664H313.899L317.05 45.5342C320.285 87.8646 319.229 130.414 313.899 172.532H291.547C298.042 133.359 299.167 93.4844 294.89 54.0083L291.547 23.1554H230.372C230.215 36.5066 229.901 49.5436 229.431 62.2665C229.117 74.8323 228.411 86.7698 227.313 98.0791C226.372 109.231 224.882 119.519 222.843 128.944C220.804 138.368 218.059 146.536 214.608 153.447C211.157 160.201 206.843 165.463 201.667 169.233C196.491 173.003 190.216 174.888 182.844 174.888Z" fill="white"/>
<path d="M484.405 4.00391H593.579V22.8526H506.758C511.499 52.2231 512.876 82.0384 510.863 111.721L506.758 172.229H484.405L488.929 110.932C490.449 90.3255 490.286 69.6288 488.442 49.0482L484.405 4.00391Z" fill="white"/>
<path d="M390.389 3.07617H415.095L480.74 171.301H456.035L437.682 120.645C415.453 112.444 391.07 112.193 368.677 119.936L366.625 120.645L347.802 171.301H324.979L390.389 3.07617ZM430.624 101.796L402.624 23.3386H402.154L373.684 101.796L395.341 96.5242C407.339 93.6033 420.004 95.4958 430.624 101.796Z" fill="white"/>
</svg>
