<?xml version="1.0" standalone="no"?>
<!DOCTYPE svg PUBLIC "-//W3C//DTD SVG 20010904//EN"
 "http://www.w3.org/TR/2001/REC-SVG-20010904/DTD/svg10.dtd">
<svg version="1.0" xmlns="http://www.w3.org/2000/svg"
 width="675.000000pt" height="675.000000pt" viewBox="0 0 675.000000 675.000000"
 preserveAspectRatio="xMidYMid meet">
<metadata>
Created by potrace 1.11, written by Peter Selinger 2001-2013
</metadata>
<g transform="translate(0.000000,675.000000) scale(0.100000,-0.100000)"
fill="#000000" stroke="none">
<path d="M3010 5746 c0 -2 -95 -262 -211 -577 -116 -316 -219 -596 -228 -624
-24 -66 -167 -456 -191 -520 -70 -185 -121 -324 -210 -570 -91 -249 -117 -318
-150 -390 -9 -20 -401 -944 -585 -1380 -51 -121 -138 -326 -193 -455 l-101
-235 297 -3 c162 -1 299 1 303 5 4 5 41 89 82 188 103 245 327 701 396 805
117 175 300 335 498 434 137 69 271 115 383 132 19 3 42 7 50 10 8 3 80 7 160
9 255 7 465 -40 676 -149 72 -37 125 -67 134 -76 3 -3 32 -25 65 -50 71 -52
65 -47 155 -135 126 -124 188 -229 407 -695 25 -52 58 -129 74 -170 16 -41 34
-84 39 -95 5 -11 19 -47 31 -80 12 -33 25 -64 29 -70 4 -5 10 -22 14 -38 l6
-27 330 0 330 0 -11 28 c-18 48 -100 256 -110 277 -4 11 -37 94 -73 185 -35
91 -107 273 -159 405 -52 132 -121 305 -152 385 -31 80 -63 159 -70 175 -7 17
-65 163 -129 325 -121 311 -287 730 -490 1245 -68 171 -164 414 -214 540 -50
127 -133 338 -185 470 -52 132 -133 337 -179 455 -47 118 -89 224 -93 235 -5
11 -7 23 -7 28 1 4 -160 7 -358 7 -198 0 -360 -2 -360 -4z m361 -593 c13 -33
66 -180 143 -398 31 -88 61 -169 66 -180 5 -11 49 -132 99 -270 49 -137 110
-306 134 -375 276 -764 347 -964 342 -968 -3 -3 -368 -6 -811 -6 l-805 -1 6
25 c4 14 17 52 30 85 12 33 68 186 124 340 56 154 106 289 110 300 10 24 26
66 166 450 58 160 108 297 112 305 3 8 7 20 8 25 4 13 144 393 155 420 5 11
27 70 49 130 61 170 55 161 72 118z"/>
</g>
</svg>
